<svg xmlns="http://www.w3.org/2000/svg" width="67.999" height="68" viewBox="0 0 67.999 68">
  <g id="company" transform="translate(-0.5 0)">
    <path id="Trazado_237" data-name="Trazado 237" d="M66.507,64.015H59.73V23.893l2.063.848a1.992,1.992,0,1,0,1.515-3.685l-3.578-1.47V16.979l2.063.848a1.992,1.992,0,1,0,1.514-3.685L29.265.15A1.992,1.992,0,0,0,27.75,3.835l2.116.87V7.31l-.6-.247a1.992,1.992,0,0,0-1.514,3.686l2.115.87v3.968L12.938,24.341A6.71,6.71,0,0,0,9.3,30.324V64.015H2.492a1.992,1.992,0,0,0,0,3.984H66.507a1.992,1.992,0,1,0,0-3.984ZM33.85,6.342l21.9,9v2.606l-21.9-9ZM23.566,64.015V57.678a1.992,1.992,0,1,0-3.984,0v6.337h-6.3V51.686h8.291a1.992,1.992,0,1,0,0-3.984H13.282V44.373h8.291a1.992,1.992,0,0,0,0-3.984H13.282V36.956h8.291a1.992,1.992,0,0,0,0-3.984H13.282V30.324a2.741,2.741,0,0,1,1.486-2.444l15.1-7.808V64.015Zm27.208,0V57.678a1.992,1.992,0,1,0-3.984,0v6.337H42.805V57.678a1.992,1.992,0,1,0-3.984,0v6.337H33.85V13.256l21.9,9v41.76Zm0,0" transform="translate(0 0)" fill="#f53030"/>
    <path id="Trazado_238" data-name="Trazado 238" d="M290.793,256.281a1.992,1.992,0,0,0,1.992-1.992V250.25a1.992,1.992,0,0,0-3.984,0v4.038A1.992,1.992,0,0,0,290.793,256.281Zm0,0" transform="translate(-250.011 -215.287)" fill="#f53030"/>
    <path id="Trazado_239" data-name="Trazado 239" d="M351.059,256.281a1.992,1.992,0,0,0,1.992-1.992V250.25a1.992,1.992,0,1,0-3.984,0v4.038A1.992,1.992,0,0,0,351.059,256.281Zm0,0" transform="translate(-302.272 -215.287)" fill="#f53030"/>
    <path id="Trazado_240" data-name="Trazado 240" d="M291,328.758A1.992,1.992,0,0,0,289,330.75v4.038a1.992,1.992,0,1,0,3.984,0V330.75A1.992,1.992,0,0,0,291,328.758Zm0,0" transform="translate(-250.187 -285.095)" fill="#f53030"/>
    <path id="Trazado_241" data-name="Trazado 241" d="M351.258,328.758a1.992,1.992,0,0,0-1.992,1.992v4.038a1.992,1.992,0,1,0,3.984,0V330.75A1.992,1.992,0,0,0,351.258,328.758Zm0,0" transform="translate(-302.445 -285.095)" fill="#f53030"/>
    <path id="Trazado_242" data-name="Trazado 242" d="M290.895,176.05a1.992,1.992,0,0,0,1.992-1.992V170.02a1.992,1.992,0,1,0-3.984,0v4.038A1.992,1.992,0,0,0,290.895,176.05Zm0,0" transform="translate(-250.099 -145.712)" fill="#f53030"/>
    <path id="Trazado_243" data-name="Trazado 243" d="M351.16,176.05a1.993,1.993,0,0,0,1.992-1.992V170.02a1.992,1.992,0,0,0-3.984,0v4.038A1.992,1.992,0,0,0,351.16,176.05Zm0,0" transform="translate(-302.361 -145.712)" fill="#f53030"/>
  </g>
</svg>
