<svg xmlns="http://www.w3.org/2000/svg" width="48.306" height="34.658" viewBox="0 0 48.306 34.658"><path d="M52.871,14.268H49.687V13.181a.936.936,0,0,0-.674-.936,26.382,26.382,0,0,0-6.751-.861c-3.746,0-8.849.842-12.622,4.681-3.746-3.876-8.886-4.681-12.622-4.681a26.376,26.376,0,0,0-6.751.861.935.935,0,0,0-.674.936v1.077H6.437a.936.936,0,0,0-.936.937V45.1a.936.936,0,0,0,.936.936.925.925,0,0,0,.459-.122c.093-.047,9.457-5.168,22.529-1.872h.224a.941.941,0,0,0,.225,0C42.983,40.72,52.346,45.832,52.4,45.916a.936.936,0,0,0,1.4-.805V15.2A.936.936,0,0,0,52.871,14.268ZM7.373,43.613V16.14H9.611V39.624a.937.937,0,0,0,.926.947.951.951,0,0,0,.151-.011,41.1,41.1,0,0,1,5.852-.468,24.285,24.285,0,0,1,8,1.208A34.43,34.43,0,0,0,7.373,43.613Zm9.167-5.384a41.1,41.1,0,0,0-5.093.328V13.921A25.855,25.855,0,0,1,17,13.3c3.5,0,8.334.8,11.686,4.588l.028,23.325C26.765,39.942,22.964,38.229,16.54,38.229ZM30.586,17.891c3.352-3.745,8.183-4.588,11.685-4.588a25.991,25.991,0,0,1,5.553.618V38.557a41.258,41.258,0,0,0-5.066-.338c-6.386,0-10.2,1.714-12.172,2.987ZM51.925,43.613a34.427,34.427,0,0,0-17.2-2.313,24.35,24.35,0,0,1,8.034-1.208,41.04,41.04,0,0,1,5.89.459.936.936,0,0,0,1.066-.785.959.959,0,0,0,.011-.151V16.14h2.238Z" transform="translate(-5.501 -11.384)" fill="#d9262e"/></svg>