<svg xmlns="http://www.w3.org/2000/svg" width="43.732" height="38.587" viewBox="0 0 43.732 38.587"><g transform="translate(-500.91 -458.413)"><path d="M24.876,41.849H14.883a.989.989,0,1,0,0,1.978h9.993a.989.989,0,1,0,0-1.978Z" transform="translate(492.953 447.236)" fill="#d9262e"/><path d="M39.817,41.849H29.823a.989.989,0,1,0,0,1.978h9.994a.989.989,0,0,0,0-1.978Z" transform="translate(492.953 447.236)" fill="#d9262e"/><path d="M39.817,17.113H14.883a.989.989,0,0,0,0,1.979H39.817a.989.989,0,0,0,0-1.979Z" transform="translate(492.953 447.236)" fill="#d9262e"/><path d="M39.817,22.06H29.823a.99.99,0,0,0,0,1.979h9.994a.99.99,0,0,0,0-1.979Z" transform="translate(492.953 447.236)" fill="#d9262e"/><path d="M39.817,27.007H29.823a.99.99,0,0,0,0,1.979h9.994a.99.99,0,0,0,0-1.979Z" transform="translate(492.953 447.236)" fill="#d9262e"/><path d="M39.817,31.954H29.823a.989.989,0,0,0,0,1.979h9.994a.989.989,0,0,0,0-1.979Z" transform="translate(492.953 447.236)" fill="#d9262e"/><path d="M39.817,36.9H29.823a.989.989,0,1,0,0,1.978h9.994a.989.989,0,0,0,0-1.978Z" transform="translate(492.953 447.236)" fill="#d9262e"/><path d="M24.876,36.9H14.883a.989.989,0,1,0,0,1.978h9.993a.989.989,0,1,0,0-1.978Z" transform="translate(492.953 447.236)" fill="#d9262e"/><path d="M24.876,22.06H14.883a.989.989,0,0,0-.989.99v9.993a.989.989,0,0,0,.989.989h9.993a.989.989,0,0,0,.99-.989V23.05A.99.99,0,0,0,24.876,22.06Zm-.989,9.993H15.873V24.039h8.014Z" transform="translate(492.953 447.236)" fill="#d9262e"/><path d="M49.711,16.124H46.742V13.156a1.98,1.98,0,0,0-1.978-1.979H9.936a1.981,1.981,0,0,0-1.979,1.979V44.817A4.953,4.953,0,0,0,12.9,49.764H46.742a4.952,4.952,0,0,0,4.947-4.947V18.1A1.981,1.981,0,0,0,49.711,16.124Zm0,28.693a2.972,2.972,0,0,1-2.969,2.968H12.9a2.971,2.971,0,0,1-2.968-2.968V13.156H44.764V43.333a2.475,2.475,0,0,0,2.473,2.473.99.99,0,1,0,0-1.979.5.5,0,0,1-.495-.494V18.1h2.969Z" transform="translate(492.953 447.236)" fill="#d9262e"/></g></svg>