<svg xmlns="http://www.w3.org/2000/svg" width="35.534" height="41" viewBox="0 0 35.534 41"><path d="M26.158,28.075h4.1a.684.684,0,0,0,0-1.367h-4.1a.684.684,0,0,0,0,1.367Z" transform="translate(-11.808 -8.942)" fill="#d9262e"/><path d="M45.044,12.309h-20.5a.683.683,0,1,0,0,1.367H44.36v30.75a2.1,2.1,0,0,1-2.051,2.05H13.61a2.1,2.1,0,0,1-2.05-2.05V13.05a3.74,3.74,0,0,0,1.367.556v30.82a.683.683,0,1,0,1.367,0V12.992a.688.688,0,0,0-.68-.683,1.949,1.949,0,0,1-2.053-2.05V9.576A1.368,1.368,0,0,1,12.927,8.21H45.044a.683.683,0,0,0,0-1.367H12.927a2.736,2.736,0,0,0-2.734,2.733v34.85a3.463,3.463,0,0,0,3.417,3.417h28.7a3.463,3.463,0,0,0,3.417-3.417V12.992A.684.684,0,0,0,45.044,12.309Z" transform="translate(-10.193 -6.843)" fill="#d9262e"/><path d="M44.683,10.582A.684.684,0,0,0,44,9.9H22.133a.683.683,0,0,0-.683.683v6.55l-1.567-1.567a.684.684,0,0,0-.967,0L17.35,17.132v-6.55a.683.683,0,0,0-.683-.683H13.933a.683.683,0,0,0,0,1.367h2.05v7.517a.683.683,0,0,0,1.166.483l2.25-2.25,2.25,2.25a.683.683,0,0,0,1.166-.483V11.266H44A.684.684,0,0,0,44.683,10.582Z" transform="translate(-10.516 -7.166)" fill="#d9262e"/><path d="M20.89,22.807V33.741a.684.684,0,0,0,.683.683H36.607a.684.684,0,0,0,.683-.683V22.807a.684.684,0,0,0-.683-.683H21.573A.684.684,0,0,0,20.89,22.807Zm1.367.683H35.924v9.567H22.257Z" transform="translate(-11.323 -8.458)" fill="#d9262e"/><path d="M32.991,29.765H26.158a.683.683,0,1,0,0,1.367h6.833a.683.683,0,1,0,0-1.367Z" transform="translate(-11.808 -9.265)" fill="#d9262e"/></svg>