<svg xmlns="http://www.w3.org/2000/svg" width="41.001" height="41" viewBox="0 0 41.001 41"><g transform="translate(0 13.933)"><path d="M34.28,33.744a.8.8,0,0,0-.8.8V40.07a4.009,4.009,0,0,1-4,4H20.829a.8.8,0,0,0-.8.8v1.592l-1.911-1.911a.8.8,0,0,0-.734-.481h-5.2a4.009,4.009,0,0,1-4-4V27.737a4.008,4.008,0,0,1,4-4h8.088a.8.8,0,1,0,0-1.6H12.177a5.612,5.612,0,0,0-5.605,5.605V40.07a5.612,5.612,0,0,0,5.605,5.605h4.794l3.289,3.289a.8.8,0,0,0,1.366-.566l0-2.723h7.845A5.612,5.612,0,0,0,35.08,40.07V34.545A.8.8,0,0,0,34.28,33.744Z" transform="translate(-6.572 -22.132)" fill="#d9262e"/></g><g transform="translate(15.696)"><g transform="translate(0)"><path d="M37.87,6.48H35.843a11.639,11.639,0,0,0,0,23.278H37.87a11.636,11.636,0,0,0,2.954-.379l2.994,2.993a.8.8,0,0,0,.567.234.787.787,0,0,0,.306-.061.8.8,0,0,0,.494-.74V27.172a11.749,11.749,0,0,0,3.06-3.772,11.516,11.516,0,0,0,1.265-5.281A11.652,11.652,0,0,0,37.87,6.48ZM43.9,26.142a.8.8,0,0,0-.319.639v3.091l-1.96-1.958a.8.8,0,0,0-.566-.234.792.792,0,0,0-.235.036,10.035,10.035,0,0,1-2.952.442H35.843a10.038,10.038,0,1,1,0-20.075H37.87A10.038,10.038,0,0,1,43.9,26.142Z" transform="translate(-24.204 -6.48)" fill="#d9262e"/></g></g><g transform="translate(25.182 5.611)"><path d="M41.633,15.934a3.39,3.39,0,0,0-6.772.239.8.8,0,1,0,1.6,0,1.789,1.789,0,1,1,2.182,1.746A1.515,1.515,0,0,0,37.451,19.4v1.924a.8.8,0,1,0,1.6,0v-1.86A3.373,3.373,0,0,0,41.633,15.934Z" transform="translate(-34.861 -12.783)" fill="#d9262e"/></g><g transform="translate(27.772 16.523)"><path d="M39.136,25.275a.8.8,0,1,0,.235.566A.806.806,0,0,0,39.136,25.275Z" transform="translate(-37.77 -25.041)" fill="#d9262e"/></g><g transform="translate(4.325 24.825)"><path d="M29.128,34.367h-16.9a.8.8,0,1,0,0,1.6h16.9a.8.8,0,0,0,0-1.6Z" transform="translate(-11.43 -34.367)" fill="#d9262e"/></g><g transform="translate(21.221 29.308)"><g transform="translate(0)"><path d="M31.778,39.639a.8.8,0,1,0,.234.566A.81.81,0,0,0,31.778,39.639Z" transform="translate(-30.411 -39.404)" fill="#d9262e"/></g></g><g transform="translate(4.325 29.308)"><path d="M25.977,39.4H12.231a.8.8,0,1,0,0,1.6H25.977a.8.8,0,1,0,0-1.6Z" transform="translate(-11.43 -39.404)" fill="#d9262e"/></g><g transform="translate(4.325 20.34)"><path d="M23.922,29.329H12.231a.8.8,0,1,0,0,1.6H23.922a.8.8,0,1,0,0-1.6Z" transform="translate(-11.43 -29.329)" fill="#d9262e"/></g></svg>