<svg xmlns="http://www.w3.org/2000/svg" width="40.092" height="40.093" viewBox="0 0 40.092 40.093"><path d="M29.265,10.983A20.047,20.047,0,1,0,49.311,31.029,20.069,20.069,0,0,0,29.265,10.983Zm0,37.625A17.579,17.579,0,1,1,46.844,31.029,17.6,17.6,0,0,1,29.265,48.608Z" transform="translate(-9.219 -10.983)" fill="#d9262e"/><circle cx="2.063" cy="2.063" r="2.063" transform="translate(18.302 9.99)" fill="#d9262e"/><path d="M29.041,28.465A1.234,1.234,0,0,0,27.807,29.7V40.184a1.234,1.234,0,1,0,2.468,0V29.7A1.234,1.234,0,0,0,29.041,28.465Z" transform="translate(-9.219 -10.983)" fill="#d9262e"/></svg>